<svg width="40" height="40" viewBox="0 0 40 40" fill="none" xmlns="http://www.w3.org/2000/svg">
<g clip-path="url(#clip0_4_49)">
<path d="M40 20.5C40 24.968 38.728 28.986 36.184 32.554C33.642 36.122 30.356 38.59 26.328 39.96C25.86 40.05 25.516 39.988 25.3 39.774C25.1934 39.6703 25.1095 39.5458 25.0534 39.4081C24.9973 39.2704 24.9702 39.1226 24.974 38.974V33.34C24.974 31.614 24.522 30.35 23.62 29.55C24.5211 29.4596 25.4138 29.2991 26.29 29.07C27.078 28.856 27.894 28.51 28.736 28.03C29.5455 27.577 30.2616 26.9743 30.846 26.254C31.41 25.55 31.87 24.616 32.226 23.45C32.582 22.284 32.76 20.946 32.76 19.434C32.76 17.28 32.074 15.446 30.704 13.934C31.344 12.314 31.276 10.5 30.494 8.488C30.008 8.328 29.306 8.428 28.386 8.782C27.5515 9.09548 26.7491 9.48863 25.99 9.956L25 10.596C23.3739 10.1324 21.6908 9.89947 20 9.904C18.3091 9.90012 16.626 10.1337 15 10.598C14.6383 10.3475 14.2695 10.1074 13.894 9.878C13.434 9.592 12.708 9.25 11.718 8.85C10.73 8.45 9.982 8.33 9.478 8.49C8.716 10.5 8.654 12.314 9.298 13.934C7.926 15.446 7.238 17.28 7.238 19.434C7.238 20.946 7.418 22.28 7.774 23.438C8.13 24.594 8.586 25.528 9.14 26.24C9.71447 26.9679 10.4267 27.5754 11.236 28.028C12.078 28.508 12.896 28.856 13.684 29.068C14.474 29.284 15.364 29.444 16.354 29.55C15.66 30.19 15.234 31.108 15.078 32.3C14.7051 32.4806 14.3115 32.615 13.906 32.7C13.4173 32.7959 12.92 32.8408 12.422 32.834C11.848 32.834 11.282 32.642 10.716 32.26C10.152 31.876 9.67 31.32 9.27 30.592C8.95753 30.0414 8.52644 29.5673 8.008 29.204C7.496 28.848 7.066 28.634 6.718 28.564L6.198 28.484C5.834 28.484 5.582 28.524 5.442 28.604C5.302 28.684 5.262 28.784 5.312 28.91C5.37082 29.0457 5.4497 29.1718 5.546 29.284C5.64591 29.4041 5.76008 29.5115 5.886 29.604L6.066 29.736C6.45 29.916 6.826 30.254 7.2 30.752C7.574 31.25 7.848 31.704 8.02 32.112L8.28 32.726C8.506 33.402 8.888 33.95 9.428 34.368C9.966 34.788 10.548 35.054 11.172 35.168C11.796 35.284 12.4 35.348 12.982 35.356C13.562 35.364 14.046 35.334 14.428 35.262L15.026 35.156C15.026 35.832 15.03 36.624 15.04 37.532L15.052 38.972C15.052 39.292 14.94 39.56 14.712 39.772C14.488 39.988 14.14 40.05 13.672 39.96C9.644 38.59 6.358 36.12 3.816 32.554C1.272 28.986 0 24.968 0 20.5C0 16.78 0.894 13.352 2.682 10.21C4.41297 7.12831 6.9235 4.5557 9.962 2.75C12.991 0.926623 16.4646 -0.0250098 20 -1.31602e-06C23.5361 -0.0253786 27.0104 0.926268 30.04 2.75C33.0778 4.55598 35.5876 7.12856 37.318 10.21C39.106 13.35 40 16.782 40 20.5Z" fill="#AFEEEE"/>
</g>
<defs>
<clipPath id="clip0_4_49">
<rect width="40" height="40" fill="white"/>
</clipPath>
</defs>
</svg>
